HIERARCHY
ROOT Hips
{
	OFFSET	0.00	0.00	0.00
	CHANNELS 6 Xposition Yposition Zposition Zrotation Xrotation Yrotation
	JOINT LeftUpLeg
	{
		OFFSET	 0.126116	-0.014019	-0.065224
		CHANNELS 3 Zrotation Xrotation Yrotation
		JOINT LeftLeg
		{
			OFFSET	 0.000000	 0.000000	 0.569914
			CHANNELS 3 Zrotation Xrotation Yrotation
			JOINT LeftFoot
			{
				OFFSET	 0.000000	 0.000000	 0.544423
				CHANNELS 3 Zrotation Xrotation Yrotation
				JOINT LeftToeBase
				{
					OFFSET	 0.000000	 0.000000	 0.207117
					CHANNELS 3 Zrotation Xrotation Yrotation
					End Site
					{
						OFFSET	 0.000000	 0.000000	 0.207117
					}
				}
			}
		}
	}
	JOINT RightUpLeg
	{
		OFFSET	-0.124023	-0.008373	-0.065224
		CHANNELS 3 Zrotation Xrotation Yrotation
		JOINT RightLeg
		{
			OFFSET	 0.000000	 0.000000	 0.570047
			CHANNELS 3 Zrotation Xrotation Yrotation
			JOINT RightFoot
			{
				OFFSET	 0.000000	 0.000000	 0.544354
				CHANNELS 3 Zrotation Xrotation Yrotation
				JOINT RightToeBase
				{
					OFFSET	 0.000000	 0.000000	 0.207540
					CHANNELS 3 Zrotation Xrotation Yrotation
					End Site
					{
						OFFSET	 0.000000	 0.000000	 0.207540
					}
				}
			}
		}
	}
	JOINT Spine
	{
		OFFSET	 0.000184	-0.007763	 0.117403
		CHANNELS 3 Zrotation Xrotation Yrotation
		JOINT Spine1
		{
			OFFSET	 0.000000	 0.000000	 0.137269
			CHANNELS 3 Zrotation Xrotation Yrotation
			JOINT Spine2
			{
				OFFSET	 0.000000	 0.000000	 0.156879
				CHANNELS 3 Zrotation Xrotation Yrotation
				JOINT LeftShoulder
				{
					OFFSET	 0.080501	-0.002496	 0.160144
					CHANNELS 3 Zrotation Xrotation Yrotation
					JOINT LeftArm
					{
						OFFSET	 0.000000	 0.000000	 0.164363
						CHANNELS 3 Zrotation Xrotation Yrotation
						JOINT LeftForeArm
						{
							OFFSET	 0.000000	 0.000000	 0.364576
							CHANNELS 3 Zrotation Xrotation Yrotation
							JOINT LeftHand
							{
								OFFSET	 0.000000	 0.000000	 0.360812
								CHANNELS 3 Zrotation Xrotation Yrotation
								JOINT LeftHandIndex1
								{
									OFFSET	 0.000000	 0.000000	 0.086006
									CHANNELS 3 Zrotation Xrotation Yrotation
									JOINT LeftHandIndex2
									{
										OFFSET	 0.000000	 0.000000	 0.047237
										CHANNELS 3 Zrotation Xrotation Yrotation
										JOINT LeftHandIndex3
										{
											OFFSET	-0.004284	-0.000551	 0.038165
											CHANNELS 3 Zrotation Xrotation Yrotation
											End Site
											{
												OFFSET	-0.004284	-0.000551	 0.038165
											}
										}
									}
								}
							}
						}
					}
				}
				JOINT Neck
				{
					OFFSET	 0.000000	 0.000000	 0.176489
					CHANNELS 3 Zrotation Xrotation Yrotation
					JOINT Head
					{
						OFFSET	 0.000000	-0.001747	 0.077940
						CHANNELS 3 Zrotation Xrotation Yrotation
						End Site
						{
							OFFSET	 0.000000	-0.001747	 0.077940
						}
					}
				}
				JOINT RightShoulder
				{
					OFFSET	-0.080363	 0.000306	 0.159706
					CHANNELS 3 Zrotation Xrotation Yrotation
					JOINT RightArm
					{
						OFFSET	 0.000000	 0.000000	 0.164196
						CHANNELS 3 Zrotation Xrotation Yrotation
						JOINT RightForeArm
						{
							OFFSET	 0.000000	 0.000000	 0.365611
							CHANNELS 3 Zrotation Xrotation Yrotation
							JOINT RightHand
							{
								OFFSET	 0.000000	 0.000000	 0.360648
								CHANNELS 3 Zrotation Xrotation Yrotation
								JOINT RightHandIndex1
								{
									OFFSET	 0.000000	 0.000000	 0.069977
									CHANNELS 3 Zrotation Xrotation Yrotation
									JOINT RightHandIndex2
									{
										OFFSET	 0.000000	 0.000000	 0.052305
										CHANNELS 3 Zrotation Xrotation Yrotation
										JOINT RightHandIndex3
										{
											OFFSET	 0.009002	-0.000782	 0.042196
											CHANNELS 3 Zrotation Xrotation Yrotation
											End Site
											{
												OFFSET	 0.009002	-0.000782	 0.042196
											}
										}
									}
								}
							}
						}
					}
				}
			}
		}
	}
}
MOTION
Frames:    4
Frame Time: 0.03333334
-0.713859	-0.006880	 1.271131	-175.910000	-7.905848	-1.596935	 13.281340	 6.795369	 176.378800	-6.264240	-10.749360	-1.449846	-6.508044	 69.923450	 0.296133	-2.385833	 28.452760	 0.000004	-10.708050	 5.557489	-175.536000	 3.595570	-15.593640	 1.027201	 8.031831	 72.770690	-3.258345	 2.384659	 28.388700	-0.000001	 7.377021	 9.097063	-1.305741	 4.844507	 12.887400	 11.161330	-21.385380	-6.560535	-18.861760	-91.776210	 78.527420	-180.000000	 8.976308	 16.082860	 14.967870	-16.638980	-4.667650	-69.587570	-2.490949	-19.145090	-2.557385	-4.130354	 21.526190	 0.991307	-5.167926	 0.731697	 3.519349	-1.378229	 35.397820	-2.634230	-9.246099	 1.354176	 4.865023	-10.229780	-17.259250	-8.046493	 89.782170	 78.203870	 179.999900	 44.719300	 13.333910	-7.369971	 10.513970	-2.949388	 65.055400	 35.006040	 8.783321	-27.075070	 5.716295	 19.173350	-3.684826	 5.027458	 0.246833	-9.377971	-2.350882	 35.473990	 5.254307
-0.714032	-0.007176	 1.270148	-175.845100	-8.109738	-1.776649	 13.402210	 5.988661	 176.174400	-6.409278	-13.474670	-1.845502	-9.150101	 71.541010	 3.180444	-2.385833	 28.452760	 0.000004	-10.544910	 5.697477	-175.220300	 3.596143	-16.863370	 1.108649	 8.669391	 73.951220	-3.896401	 2.384659	 28.388700	-0.000001	 6.549418	 9.424688	-1.168797	 4.089875	 11.809100	 11.307450	-21.085320	-5.969432	-18.623770	-91.776180	 78.527420	 180.000000	 6.370125	 25.118270	 16.141180	-17.099040	-5.051141	-75.887280	-2.684825	-19.161280	-2.598995	-4.130354	 21.526190	 0.991307	-5.167926	 0.731697	 3.519349	-1.378229	 35.397820	-2.634230	-9.107965	 1.151402	 4.763835	-10.116200	-16.926760	-7.787394	 89.782110	 78.203850	 180.000000	 39.514560	 17.759860	-11.911870	 11.060020	-3.211617	 75.647800	 35.885080	 4.105174	-24.092850	 5.716295	 19.173350	-3.684826	 5.027458	 0.246833	-9.377971	-2.350882	 35.473990	 5.254307
-0.714200	-0.007530	 1.268970	-175.837500	-8.287778	-2.002809	 13.633310	 5.266725	 175.909900	-6.601045	-16.139300	-2.255519	-12.697630	 72.980130	 7.055434	-2.385833	 28.452760	 0.000004	-10.236830	 5.892546	-174.869300	 3.534406	-18.246090	 1.177155	 9.391542	 75.360550	-4.539305	 2.384659	 28.388700	-0.000001	 5.571326	 9.727697	-0.905329	 3.184642	 10.506510	 11.319920	-20.708070	-5.326286	-18.292360	-91.776180	 78.527420	-180.000000	 3.949224	 36.419240	 16.465500	-17.410030	-5.211131	-79.656000	-2.969243	-19.212010	-2.638970	-4.130354	 21.526190	 0.991307	-5.167926	 0.731697	 3.519349	-1.378229	 35.397820	-2.634230	-8.874043	 0.807295	 4.553437	-9.936390	-16.468390	-7.200963	 89.782110	 78.203850	 180.000000	 32.173120	 23.401180	-15.293760	 11.625240	-3.490099	 85.888760	 35.527940	-1.319551	-19.418590	 5.716295	 19.173350	-3.684826	 5.027458	 0.246833	-9.377971	-2.350882	 35.473990	 5.254307
-0.714355	-0.007851	 1.267945	-175.844200	-8.433452	-1.929727	 13.698810	 4.587905	 175.400800	-6.728054	-18.499730	-2.615263	-16.315570	 74.440010	 10.869400	-2.385833	 28.452760	 0.000004	-10.066840	 6.323851	-174.811800	 3.461074	-19.073020	 1.204493	 10.700930	 76.331360	-5.815958	 2.384659	 28.388700	-0.000001	 4.730996	 9.980662	-1.163009	 2.293508	 9.068861	 11.536440	-20.263210	-4.338922	-17.913770	-91.776180	 78.527400	-180.000000	 2.800574	 46.456400	 15.203040	-17.354020	-5.297808	-79.312360	-3.060504	-19.153330	-2.680839	-4.130354	 21.526190	 0.991307	-5.167926	 0.731697	 3.519349	-1.378229	 35.397820	-2.634230	-8.724295	 0.672903	 4.545382	-9.800411	-16.036370	-7.191973	 89.782110	 78.203870	 180.000000	 24.688170	 29.067950	-16.209470	 12.089380	-3.936037	 93.216740	 33.613270	-6.103313	-15.155900	 5.716295	 19.173350	-3.684826	 5.027458	 0.246833	-9.377971	-2.350882	 35.473990	 5.254307
